# xmcd
#
# Track frame offsets:
#	150
#	11593
#	28896
#	44118
#	56303
#	73119
#	84440
#	97660
#	113445
#	126253
#	143175
#	161446
#	178702
#	191551
#	213396
#
# Disc length: 3008
#
# Revision: 1
# Processed by: cddbd v1.5.1PL0 Copyright (c) Steve Scherf et al.
# Submitted via: dBpowerAMP V4.0
# Normalized: r0:TRMNUM
#
DISCID=ca0bbe0f
DTITLE=Various Artist - Let`s Line Dance 2/3
DYEAR=1997
DGENRE=Line Dance
TTITLE0=The Sideliners - Hillbilly Rock Hillbilly Roll
TTITLE1=Pedro Patata - Macarena
TTITLE2=Shaun Byrne - Heart As Big As Texas
TTITLE3=John Donnelly - My Heart Keeps Changin`It`s Mind
TTITLE4=Big Al - Caravan Song
TTITLE5=Simon Richmond - Daddy`s Got His Blue Jeans On
TTITLE6=Shaun Byrne - You´ve Been Teeling Me Lies
TTITLE7=Simon Richmond - Let`s Hear It For The Ladies
TTITLE8=Northern Lights - Situation Vacant
TTITLE9=Watermelon Henry - Burnin`Fire
TTITLE10=Les Payne Posse - No Money
TTITLE11=Simon Richmond - Honky Tonk Ballroom
TTITLE12=Capricorn - Arlene
TTITLE13=Corridor 38 - Born In Britain
TTITLE14=Capricorn - Picture Frame
EXTD=
EXTT0=
EXTT1=
EXTT2=
EXTT3=
EXTT4=
EXTT5=
EXTT6=
EXTT7=
EXTT8=
EXTT9=
EXTT10=
EXTT11=
EXTT12=
EXTT13=
EXTT14=
PLAYORDER=
